<?xml version="1.0" encoding="UTF-8"?>
<svg width="72px" height="72px" viewBox="0 0 72 72" version="1.1" xmlns="http://www.w3.org/2000/svg" xmlns:xlink="http://www.w3.org/1999/xlink">
    <!-- Generator: Sketch 56.2 (81672) - https://sketch.com -->
    <title>Ｏil</title>
    <desc>Created with Sketch.</desc>
    <g id="Ｏil" stroke="none" stroke-width="1" fill="none" fill-rule="evenodd">
        <rect id="Rectangle" x="0" y="0" width="72" height="72"></rect>
        <g id="oil" transform="translate(4.000000, 22.000000)" fill="#FFFFFF" fill-rule="nonzero">
            <path d="M58.8153076,6.96679688 C58.3990401,6.31587507 57.112182,6.28676359 56.3968506,6.56347656 L36.9743927,14.5475429 L33.2868029,10.483542 C32.9827655,10.1752798 32.5701741,10.0021973 32.140067,10.0021973 L27.0187988,10.0021973 L27.0187988,3.89794922 L31.4928521,3.89794922 C32.38853,3.89794922 33.4901123,2.95017789 33.4901123,2.04248047 C33.4901123,1.13478304 32.38853,0 31.4928521,0 L18.4869244,0 C17.5912464,0 16.4246826,0.513305664 16.4246826,2.04248047 C16.4246826,3.57165527 17.5912464,3.89794922 18.4869244,3.89794922 L23.0148926,3.89794922 L23.0148926,10.0021973 L19.9813789,10.0021973 L6.04919434,3.60021973 C5.98713263,3.5741478 5.92420595,3.55377226 5.86106304,3.53602582 C5.08258869,3.31627672 4.24724246,3.71414747 3.93023041,4.48973253 L0.12509317,12.2676734 C0.124660684,12.2687689 0.124228199,12.2696452 0.123795713,12.2707407 C0.0381635347,12.4804116 -0.00162515421,12.6977507 -0.000175757299,12.9113652 C0.00464588914,13.5517706 0.380908491,14.1577786 1.00152554,14.4180597 C1.00390421,14.4191551 1.00649913,14.4198124 1.00909404,14.4209079 L11.9599609,19.2973633 L11.9863562,27.383231 C11.9863562,28.2909285 12.7124998,29.0264197 13.6081777,29.0264197 L39.6780909,29 C40.108198,29 40.5207894,28.8269175 40.8248269,28.5188744 L58.5251575,9.55838391 C59.0661972,9.00977799 59.2317914,7.6172805 58.8153076,6.96679688 Z M5,12.2146694 L6.72302322,8 L12.3775111,11.0334878 C12.1474286,11.3172117 12.0090332,11.6802469 12.0090332,12.0763649 L12.0090332,15.8171387 L5,12.2146694 Z M38.9460449,25.045166 L15.9792774,25.045166 L15.9792774,14 L31.0181885,14 L35.3741028,18.4929772 C35.8266992,18.9519746 36.5031069,19.0974516 37.1005859,18.8658715 L50.849833,12.686577 L38.9460449,25.045166 Z" id="Shape"></path>
            <path d="M61,18 C61,18 58,22.3431267 58,23.9997855 C58,25.6568733 59.3431267,27 61,27 C62.6570877,27 64,25.6566588 64,23.9997855 C64,22.3431267 61,18 61,18 Z" id="Path"></path>
        </g>
    </g>
</svg>