<?xml version="1.0" encoding="UTF-8"?>
<svg width="72px" height="72px" viewBox="0 0 72 72" version="1.1" xmlns="http://www.w3.org/2000/svg" xmlns:xlink="http://www.w3.org/1999/xlink">
    <!-- Generator: Sketch 56.2 (81672) - https://sketch.com -->
    <title>water</title>
    <desc>Created with Sketch.</desc>
    <g id="water" stroke="none" stroke-width="1" fill="none" fill-rule="evenodd">
        <rect id="Rectangle" x="0" y="0" width="72" height="72"></rect>
        <g id="Group" transform="translate(10.000000, 22.000000)" fill="#FFFFFF" fill-rule="nonzero">
            <path d="M52,29 C48.6845638,29 46.9957852,27.9538889 45.5940537,27.1134222 C44.408349,26.4025333 43.551745,25.8888889 41.6226846,25.8888889 C39.6936242,25.8888889 38.8371946,26.4025333 37.6514899,27.1134222 C36.2497584,27.9538889 34.5049664,29 31.2453691,29 C27.9857718,29 26.2415034,27.9538889 24.8397718,27.1134222 C23.6542416,26.4025333 22.7974631,25.8888889 20.8687517,25.8888889 C18.9400403,25.8888889 18.0836107,26.4025333 16.8980805,27.1134222 C15.4965235,27.9538889 13.7517315,29 10.4923087,29 C7.23288591,29 5.43033557,27.9538889 4.02877852,27.1134222 C2.84324832,26.4025333 1.91946309,25.8888889 0,25.8888889 L0,22 C3.31543624,22 5.06197315,23.0461111 6.4635302,23.8865778 C7.6492349,24.5974667 8.53463087,25.1111111 10.4633423,25.1111111 C12.3922282,25.1111111 13.2631409,24.5974667 14.4486711,23.8865778 C15.8502282,23.0461111 17.6021745,22 20.8615973,22 C24.1210201,22 25.8691275,23.0461111 27.2708591,23.8865778 C28.4563893,24.5974667 29.3149128,25.1111111 31.2437987,25.1111111 C33.1728591,25.1111111 34.0301611,24.5974667 35.2156913,23.8865778 C36.6174228,23.0461111 38.3627383,22 41.6223356,22 C44.8819329,22 46.6268993,23.0461111 48.0286309,23.8865778 C49.2141611,24.5974667 50.0805369,25.1111111 52,25.1111111 L52,29 Z" id="Path"></path>
            <path d="M52,18 C48.6845638,18 46.9957852,16.9538889 45.5940537,16.1134222 C44.408349,15.4025333 43.551745,14.8888889 41.6226846,14.8888889 C39.6936242,14.8888889 38.8371946,15.4025333 37.6514899,16.1134222 C36.2497584,16.9538889 34.5049664,18 31.2453691,18 C27.9857718,18 26.2415034,16.9538889 24.8397718,16.1134222 C23.6542416,15.4025333 22.7974631,14.8888889 20.8687517,14.8888889 C18.9400403,14.8888889 18.0836107,15.4025333 16.8980805,16.1134222 C15.4965235,16.9538889 13.7517315,18 10.4923087,18 C7.23288591,18 5.43033557,16.9538889 4.02877852,16.1134222 C2.84324832,15.4025333 1.91946309,14.8888889 0,14.8888889 L0,11 C3.31543624,11 5.06197315,12.0461111 6.4635302,12.8865778 C7.6492349,13.5974667 8.53463087,14.1111111 10.4633423,14.1111111 C12.3922282,14.1111111 13.2631409,13.5974667 14.4486711,12.8865778 C15.8502282,12.0461111 17.6021745,11 20.8615973,11 C24.1210201,11 25.8691275,12.0461111 27.2708591,12.8865778 C28.4563893,13.5974667 29.3149128,14.1111111 31.2437987,14.1111111 C33.1728591,14.1111111 34.0301611,13.5974667 35.2156913,12.8865778 C36.6174228,12.0461111 38.3627383,11 41.6223356,11 C44.8819329,11 46.6268993,12.0461111 48.0286309,12.8865778 C49.2141611,13.5974667 50.0805369,14.1111111 52,14.1111111 L52,18 Z" id="Path"></path>
            <path d="M52,7 C48.6845638,7 46.9957852,5.95388889 45.5940537,5.11342222 C44.408349,4.40253333 43.551745,3.88888889 41.6226846,3.88888889 C39.6936242,3.88888889 38.8371946,4.40253333 37.6514899,5.11342222 C36.2497584,5.95388889 34.5049664,7 31.2453691,7 C27.9857718,7 26.2415034,5.95388889 24.8397718,5.11342222 C23.6542416,4.40253333 22.7974631,3.88888889 20.8687517,3.88888889 C18.9400403,3.88888889 18.0836107,4.40253333 16.8980805,5.11342222 C15.4965235,5.95388889 13.7517315,7 10.4923087,7 C7.23288591,7 5.43033557,5.95388889 4.02877852,5.11342222 C2.84324832,4.40253333 1.91946309,3.88888889 0,3.88888889 L0,0 C3.31543624,0 5.06197315,1.04611111 6.4635302,1.88657778 C7.6492349,2.59746667 8.53463087,3.11111111 10.4633423,3.11111111 C12.3922282,3.11111111 13.2631409,2.59746667 14.4486711,1.88657778 C15.8502282,1.04611111 17.6021745,0 20.8615973,0 C24.1210201,0 25.8691275,1.04611111 27.2708591,1.88657778 C28.4563893,2.59746667 29.3149128,3.11111111 31.2437987,3.11111111 C33.1728591,3.11111111 34.0301611,2.59746667 35.2156913,1.88657778 C36.6174228,1.04611111 38.3627383,0 41.6223356,0 C44.8819329,0 46.6268993,1.04611111 48.0286309,1.88657778 C49.2141611,2.59746667 50.0805369,3.11111111 52,3.11111111 L52,7 Z" id="Path"></path>
        </g>
    </g>
</svg>